<svg xmlns="http://www.w3.org/2000/svg" xmlns:xlink="http://www.w3.org/1999/xlink" xml:space="preserve" width="507.452"
  height="449.26" viewBox="0 0 134.263 118.867">
  <defs>
    <linearGradient id="a">
      <stop offset="0" stop-color="#ed8b00" />
      <stop offset="1" stop-color="#f2b104" />
    </linearGradient>
    <linearGradient xlink:href="#a" id="b" x1="90.628" x2="90.628" y1="79.097" y2="148.513"
      gradientUnits="userSpaceOnUse" />
  </defs>
  <path fill="#100d06"
    d="M124.593 118.867H9.67a9.67 9.67 0 0 1-8.375-14.506L21.65 69.104 58.757 4.835a9.67 9.67 0 0 1 16.75 0l20.355 35.257 37.106 64.269a9.67 9.67 0 0 1-8.375 14.506z" />
  <path fill="url(#b)"
    d="M126.84 149.037H54.321a3.208 3.208 60 0 1-2.778-4.812l15.351-26.59 20.908-36.213a3.208 3.208 0 0 1 5.557 0l15.351 26.59 20.908 36.213a3.208 3.208 120 0 1-2.778 4.812z"
    transform="matrix(.85759 0 0 .85663 -10.55 -50.572)" />
  <path fill="#ffb700" d="M96.16 77.086H38.103l14.515-25.111 14.515-25.112 14.514 25.112z" />
  <path fill="#fc5900"
    d="m23.667 90.81-7.336 12.826c-.742 1.297.185 2.918 1.67 2.918h98.848c1.484 0 2.412-1.621 1.67-2.918l-7.336-12.827a5.184 5.234 0 0 0-4.49-2.616H28.157a5.184 5.234 0 0 0-4.49 2.616z" />
  <path fill="#ff8500" d="m29.339 93.879-6.813 12.66h89.797l-6.813-12.66z" />
</svg>